<?xml version="1.0" standalone="no"?>
<!DOCTYPE svg PUBLIC "-//W3C//DTD SVG 20010904//EN"
 "http://www.w3.org/TR/2001/REC-SVG-20010904/DTD/svg10.dtd">
<svg version="1.0" xmlns="http://www.w3.org/2000/svg"
 width="128.000000pt" height="128.000000pt" viewBox="0 0 128.000000 128.000000"
 preserveAspectRatio="xMidYMid meet">
<metadata>
Created by potrace 1.11, written by Peter Selinger 2001-2013
</metadata>
<g transform="translate(0.000000,128.000000) scale(0.100000,-0.100000)"
fill="#000000" stroke="none">
<path d="M273 1132 c-12 -9 -42 -62 -68 -116 -53 -116 -50 -91 -70 -511 -4
-77 -8 -150 -10 -162 -9 -55 45 -153 82 -153 8 0 12 -3 10 -7 -3 -5 191 -9
430 -10 480 -3 485 -2 511 57 10 22 12 58 9 128 -3 53 -6 97 -7 97 -1 0 -3 18
-5 40 -1 22 -6 74 -10 115 -11 119 -14 151 -20 218 -3 35 -14 83 -25 105 -47
100 -103 193 -123 204 -16 9 -112 12 -352 12 -298 1 -332 -1 -352 -17z"/>
</g>
</svg>
